<svg xmlns="http://www.w3.org/2000/svg" width="210" height="210" viewBox="0 0 210 210">
  <g id="Path_21" data-name="Path 21" fill="none">
    <path d="M105,0A105,105,0,1,1,0,105,105,105,0,0,1,105,0Z" stroke="none"/>
    <path d="M 105 5 C 98.21184539794922 5 91.42946624755859 5.683563232421875 84.84121704101563 7.031723022460938 C 78.42294311523438 8.3450927734375 72.10975646972656 10.3048095703125 66.0770263671875 12.85643005371094 C 60.15269470214844 15.36221313476563 54.43827819824219 18.46394348144531 49.092529296875 22.07546997070313 C 43.79627990722656 25.65353393554688 38.81578063964844 29.76287841796875 34.289306640625 34.289306640625 C 29.76287841796875 38.81578063964844 25.65353393554688 43.79627990722656 22.07546997070313 49.092529296875 C 18.46394348144531 54.43827819824219 15.36221313476563 60.15269470214844 12.85643005371094 66.0770263671875 C 10.3048095703125 72.10975646972656 8.3450927734375 78.42294311523438 7.031723022460938 84.84121704101563 C 5.683563232421875 91.42946624755859 5 98.21184539794922 5 105 C 5 111.7881546020508 5.683563232421875 118.5705337524414 7.031723022460938 125.1587829589844 C 8.3450927734375 131.5770568847656 10.3048095703125 137.8902587890625 12.85643005371094 143.9229736328125 C 15.36221313476563 149.8473205566406 18.46394348144531 155.5617218017578 22.07546997070313 160.907470703125 C 25.65353393554688 166.2037200927734 29.76287841796875 171.1842193603516 34.289306640625 175.710693359375 C 38.81578063964844 180.2371215820313 43.79627990722656 184.3464660644531 49.092529296875 187.9245300292969 C 54.43827819824219 191.5360565185547 60.15269470214844 194.6377868652344 66.0770263671875 197.1435546875 C 72.10975646972656 199.6951904296875 78.42294311523438 201.6549072265625 84.84121704101563 202.9682769775391 C 91.42946624755859 204.3164367675781 98.21184539794922 205 105 205 C 111.7881546020508 205 118.5705337524414 204.3164367675781 125.1587829589844 202.9682769775391 C 131.5770568847656 201.6549072265625 137.8902587890625 199.6951904296875 143.9229736328125 197.1435546875 C 149.8473205566406 194.6377868652344 155.5617218017578 191.5360565185547 160.907470703125 187.9245300292969 C 166.2037200927734 184.3464660644531 171.1842193603516 180.2371215820313 175.710693359375 175.710693359375 C 180.2371215820313 171.1842193603516 184.3464660644531 166.2037200927734 187.9245300292969 160.907470703125 C 191.5360565185547 155.5617218017578 194.6377868652344 149.8473205566406 197.1435546875 143.9229736328125 C 199.6951904296875 137.8902587890625 201.6549072265625 131.5770568847656 202.9682769775391 125.1587829589844 C 204.3164367675781 118.5705337524414 205 111.7881546020508 205 105 C 205 98.21184539794922 204.3164367675781 91.42946624755859 202.9682769775391 84.84121704101563 C 201.6549072265625 78.42294311523438 199.6951904296875 72.10975646972656 197.1435546875 66.0770263671875 C 194.6377868652344 60.15269470214844 191.5360565185547 54.43827819824219 187.9245300292969 49.092529296875 C 184.3464660644531 43.79627990722656 180.2371215820313 38.81578063964844 175.710693359375 34.289306640625 C 171.1842193603516 29.76287841796875 166.2037200927734 25.65353393554688 160.907470703125 22.07546997070313 C 155.5617218017578 18.46394348144531 149.8473205566406 15.36221313476563 143.9229736328125 12.85643005371094 C 137.8902587890625 10.3048095703125 131.5770568847656 8.3450927734375 125.1587829589844 7.031723022460938 C 118.5705337524414 5.683563232421875 111.7881546020508 5 105 5 M 105 0 C 162.9898986816406 0 210 47.01010131835938 210 105 C 210 162.9898986816406 162.9898986816406 210 105 210 C 47.01010131835938 210 0 162.9898986816406 0 105 C 0 47.01010131835938 47.01010131835938 0 105 0 Z" stroke="none" fill="#232121"/>
  </g>
  <path id="Icon_awesome-arrow-left" data-name="Icon awesome-arrow-left" d="M44.969,65.488l-3.876,3.424a4.572,4.572,0,0,1-5.919,0L1.228,38.945a3.391,3.391,0,0,1,0-5.228L35.173,3.735a4.572,4.572,0,0,1,5.919,0l3.876,3.424a3.411,3.411,0,0,1-.07,5.29L23.858,30.154H74.042a3.959,3.959,0,0,1,4.191,3.7v4.935a3.959,3.959,0,0,1-4.191,3.7H23.858L44.9,60.2A3.389,3.389,0,0,1,44.969,65.488Z" transform="translate(66.003 68.353)" fill="#232121"/>
</svg>
